<svg xmlns="http://www.w3.org/2000/svg" width="1920" height="1080"><path d="M853,678L708,582L671,881Z" fill="#c0dbf4" stroke="#c0dbf4" stroke-width="1.51"/><path d="M671,881L840,960L853,678Z" fill="#b3d2ed" stroke="#b3d2ed" stroke-width="1.51"/><path d="M708,582L443,610L671,881Z" fill="#bdd8f6" stroke="#bdd8f6" stroke-width="1.51"/><path d="M443,610L430,831L671,881Z" fill="#aecff1" stroke="#aecff1" stroke-width="1.51"/><path d="M671,881L510,1142L840,960Z" fill="#9bc3e4" stroke="#9bc3e4" stroke-width="1.51"/><path d="M708,582L583,424L443,610Z" fill="#cee3ff" stroke="#cee3ff" stroke-width="1.51"/><path d="M1019,373L583,424L708,582Z" fill="#d2e6ff" stroke="#d2e6ff" stroke-width="1.51"/><path d="M583,424L508,393L443,610Z" fill="#c6ddff" stroke="#c6ddff" stroke-width="1.51"/><path d="M430,831L510,1142L671,881Z" fill="#99c1e6" stroke="#99c1e6" stroke-width="1.51"/><path d="M853,678L1019,373L708,582Z" fill="#daedff" stroke="#daedff" stroke-width="1.51"/><path d="M583,424L568,253L508,393Z" fill="#c1d9ff" stroke="#c1d9ff" stroke-width="1.51"/><path d="M1358,699L1019,373L853,678Z" fill="#d0e6f7" stroke="#d0e6f7" stroke-width="1.51"/><path d="M994,222L568,253L583,424Z" fill="#c5dcff" stroke="#c5dcff" stroke-width="1.51"/><path d="M443,610L163,841L430,831Z" fill="#a7c9f2" stroke="#a7c9f2" stroke-width="1.51"/><path d="M430,831L189,1121L510,1142Z" fill="#87b5e1" stroke="#87b5e1" stroke-width="1.51"/><path d="M508,393L284,464L443,610Z" fill="#c3daff" stroke="#c3daff" stroke-width="1.51"/><path d="M501,89L284,464L508,393Z" fill="#b8d2ff" stroke="#b8d2ff" stroke-width="1.51"/><path d="M284,464L219,543L443,610Z" fill="#c1daff" stroke="#c1daff" stroke-width="1.51"/><path d="M219,543L163,841L443,610Z" fill="#b0cef8" stroke="#b0cef8" stroke-width="1.51"/><path d="M840,960L1326,892L853,678Z" fill="#b7d6eb" stroke="#b7d6eb" stroke-width="1.51"/><path d="M705,1319L1090,1160L840,960Z" fill="#9ec0e3" stroke="#9ec0e3" stroke-width="1.51"/><path d="M510,1142L705,1319L840,960Z" fill="#94bae3" stroke="#94bae3" stroke-width="1.51"/><path d="M347,1594L705,1319L510,1142Z" fill="#94aaf0" stroke="#94aaf0" stroke-width="1.51"/><path d="M1019,373L994,222L583,424Z" fill="#cee3ff" stroke="#cee3ff" stroke-width="1.51"/><path d="M1090,1160L1326,892L840,960Z" fill="#9cc5de" stroke="#9cc5de" stroke-width="1.51"/><path d="M1019,373L1108,171L994,222Z" fill="#c6defc" stroke="#c6defc" stroke-width="1.51"/><path d="M1326,892L1358,699L853,678Z" fill="#b2d2e8" stroke="#b2d2e8" stroke-width="1.51"/><path d="M1393,597L1205,312L1019,373Z" fill="#c2ddf4" stroke="#c2ddf4" stroke-width="1.51"/><path d="M163,841L189,1121L430,831Z" fill="#8eb9e7" stroke="#8eb9e7" stroke-width="1.51"/><path d="M568,253L501,89L508,393Z" fill="#b8d2ff" stroke="#b8d2ff" stroke-width="1.51"/><path d="M284,464L-73,391L219,543Z" fill="#b4ceff" stroke="#b4ceff" stroke-width="1.51"/><path d="M994,222L501,89L568,253Z" fill="#bcd5ff" stroke="#bcd5ff" stroke-width="1.51"/><path d="M994,222L709,-199L501,89Z" fill="#b4cfff" stroke="#b4cfff" stroke-width="1.51"/><path d="M1205,312L1108,171L1019,373Z" fill="#c2dbf9" stroke="#c2dbf9" stroke-width="1.51"/><path d="M1358,699L1393,597L1019,373Z" fill="#c3def1" stroke="#c3def1" stroke-width="1.51"/><path d="M1743,969L1393,597L1358,699Z" fill="#96c1da" stroke="#96c1da" stroke-width="1.51"/><path d="M705,1319L993,1447L1090,1160Z" fill="#a7bbed" stroke="#a7bbed" stroke-width="1.51"/><path d="M347,1594L797,1439L705,1319Z" fill="#9da9f5" stroke="#9da9f5" stroke-width="1.51"/><path d="M1326,892L1588,1001L1358,699Z" fill="#8fbdd8" stroke="#8fbdd8" stroke-width="1.51"/><path d="M1090,1160L1345,1082L1326,892Z" fill="#88b8d4" stroke="#88b8d4" stroke-width="1.51"/><path d="M1295,1396L1345,1082L1090,1160Z" fill="#8bb0db" stroke="#8bb0db" stroke-width="1.51"/><path d="M797,1439L993,1447L705,1319Z" fill="#a6b3f3" stroke="#a6b3f3" stroke-width="1.51"/><path d="M219,543L-225,807L163,841Z" fill="#9dbdf4" stroke="#9dbdf4" stroke-width="1.51"/><path d="M163,841L-142,960L189,1121Z" fill="#7eace5" stroke="#7eace5" stroke-width="1.51"/><path d="M60,145L-73,391L284,464Z" fill="#a9c4ff" stroke="#a9c4ff" stroke-width="1.51"/><path d="M1393,597L1505,388L1205,312Z" fill="#b5d4ed" stroke="#b5d4ed" stroke-width="1.51"/><path d="M1205,312L1436,118L1108,171Z" fill="#b0cff2" stroke="#b0cff2" stroke-width="1.51"/><path d="M1883,605L1505,388L1393,597Z" fill="#a7cce3" stroke="#a7cce3" stroke-width="1.51"/><path d="M501,89L60,145L284,464Z" fill="#abc9ff" stroke="#abc9ff" stroke-width="1.51"/><path d="M709,-199L353,-54L501,89Z" fill="#a3c2ff" stroke="#a3c2ff" stroke-width="1.51"/><path d="M353,-54L60,145L501,89Z" fill="#a0c2ff" stroke="#a0c2ff" stroke-width="1.51"/><path d="M993,1447L1295,1396L1090,1160Z" fill="#9bb1e7" stroke="#9bb1e7" stroke-width="1.51"/><path d="M1345,1082L1588,1001L1326,892Z" fill="#7fb3d0" stroke="#7fb3d0" stroke-width="1.51"/><path d="M-225,807L-142,960L163,841Z" fill="#85abeb" stroke="#85abeb" stroke-width="1.51"/><path d="M189,1121L347,1594L510,1142Z" fill="#88a8eb" stroke="#88a8eb" stroke-width="1.51"/><path d="M1295,1396L1404,1311L1345,1082Z" fill="#84a8d9" stroke="#84a8d9" stroke-width="1.51"/><path d="M1404,1311L1588,1001L1345,1082Z" fill="#74a8cd" stroke="#74a8cd" stroke-width="1.51"/><path d="M1060,-166L709,-199L994,222Z" fill="#b8d1ff" stroke="#b8d1ff" stroke-width="1.51"/><path d="M1060,-166L994,222L1108,171Z" fill="#b9d4fb" stroke="#b9d4fb" stroke-width="1.51"/><path d="M120,1555L347,1594L189,1121Z" fill="#869df4" stroke="#869df4" stroke-width="1.51"/><path d="M797,1439L993,1641L993,1447Z" fill="#afb1f9" stroke="#afb1f9" stroke-width="1.51"/><path d="M993,1447L993,1641L1295,1396Z" fill="#a4abf3" stroke="#a4abf3" stroke-width="1.51"/><path d="M-73,391L-225,807L219,543Z" fill="#adc4fd" stroke="#adc4fd" stroke-width="1.51"/><path d="M804,1774L993,1641L797,1439Z" fill="#afa9ff" stroke="#afa9ff" stroke-width="1.51"/><path d="M1295,1396L1461,1421L1404,1311Z" fill="#85a1df" stroke="#85a1df" stroke-width="1.51"/><path d="M1505,388L1436,118L1205,312Z" fill="#a9cbec" stroke="#a9cbec" stroke-width="1.51"/><path d="M1333,-140L1060,-166L1108,171Z" fill="#a7c6f6" stroke="#a7c6f6" stroke-width="1.51"/><path d="M-318,1033L-136,1207L-142,960Z" fill="#6295df" stroke="#6295df" stroke-width="1.51"/><path d="M-142,960L-136,1207L189,1121Z" fill="#6c9de0" stroke="#6c9de0" stroke-width="1.51"/><path d="M-136,1207L120,1555L189,1121Z" fill="#7999ec" stroke="#7999ec" stroke-width="1.51"/><path d="M1305,1700L1461,1421L1295,1396Z" fill="#8d9ce8" stroke="#8d9ce8" stroke-width="1.51"/><path d="M1404,1311L1725,1177L1588,1001Z" fill="#6aa0ca" stroke="#6aa0ca" stroke-width="1.51"/><path d="M353,-54L190,-139L60,145Z" fill="#95b9ff" stroke="#95b9ff" stroke-width="1.51"/><path d="M60,145L-162,152L-73,391Z" fill="#9ab6ff" stroke="#9ab6ff" stroke-width="1.51"/><path d="M338,-422L190,-139L353,-54Z" fill="#8cadff" stroke="#8cadff" stroke-width="1.51"/><path d="M709,-199L586,-301L353,-54Z" fill="#9cb8ff" stroke="#9cb8ff" stroke-width="1.51"/><path d="M1069,-383L586,-301L709,-199Z" fill="#a1b7ff" stroke="#a1b7ff" stroke-width="1.51"/><path d="M398,1820L804,1774L347,1594Z" fill="#9e9dff" stroke="#9e9dff" stroke-width="1.51"/><path d="M347,1594L804,1774L797,1439Z" fill="#a4a2ff" stroke="#a4a2ff" stroke-width="1.51"/><path d="M993,1641L1305,1700L1295,1396Z" fill="#9ea1f3" stroke="#9ea1f3" stroke-width="1.51"/><path d="M-73,391L-351,634L-225,807Z" fill="#a0b6fb" stroke="#a0b6fb" stroke-width="1.51"/><path d="M-141,-147L-162,152L60,145Z" fill="#8bacff" stroke="#8bacff" stroke-width="1.51"/><path d="M1588,1001L1743,969L1358,699Z" fill="#7fb3d0" stroke="#7fb3d0" stroke-width="1.51"/><path d="M1671,-165L1409,-79L1436,118Z" fill="#88b4e7" stroke="#88b4e7" stroke-width="1.51"/><path d="M1725,1177L1743,969L1588,1001Z" fill="#5ea0c1" stroke="#5ea0c1" stroke-width="1.51"/><path d="M-509,381L-351,634L-73,391Z" fill="#9fb2ff" stroke="#9fb2ff" stroke-width="1.51"/><path d="M-225,807L-318,1033L-142,960Z" fill="#749de8" stroke="#749de8" stroke-width="1.51"/><path d="M1060,-166L1069,-383L709,-199Z" fill="#adc0ff" stroke="#adc0ff" stroke-width="1.51"/><path d="M1436,118L1409,-79L1108,171Z" fill="#a1c5ef" stroke="#a1c5ef" stroke-width="1.51"/><path d="M1750,297L1436,118L1505,388Z" fill="#98c1e5" stroke="#98c1e5" stroke-width="1.51"/><path d="M-136,1207L-30,1543L120,1555Z" fill="#798ef4" stroke="#798ef4" stroke-width="1.51"/><path d="M-351,634L-318,1033L-225,807Z" fill="#7fa1ef" stroke="#7fa1ef" stroke-width="1.51"/><path d="M1409,-79L1333,-140L1108,171Z" fill="#9ec2f1" stroke="#9ec2f1" stroke-width="1.51"/><path d="M161,1773L398,1820L347,1594Z" fill="#9196ff" stroke="#9196ff" stroke-width="1.51"/><path d="M-308,1418L-30,1543L-136,1207Z" fill="#6f88f1" stroke="#6f88f1" stroke-width="1.51"/><path d="M1461,1421L1725,1177L1404,1311Z" fill="#759cd4" stroke="#759cd4" stroke-width="1.51"/><path d="M1883,605L1750,297L1505,388Z" fill="#97c0df" stroke="#97c0df" stroke-width="1.51"/><path d="M161,1773L347,1594L120,1555Z" fill="#8c93ff" stroke="#8c93ff" stroke-width="1.51"/><path d="M-318,1033L-298,1243L-136,1207Z" fill="#618ee4" stroke="#618ee4" stroke-width="1.51"/><path d="M1461,1421L1689,1457L1725,1177Z" fill="#6d95d3" stroke="#6d95d3" stroke-width="1.51"/><path d="M804,1774L1305,1700L993,1641Z" fill="#aea8fd" stroke="#aea8fd" stroke-width="1.51"/><path d="M1172,-348L1060,-166L1333,-140Z" fill="#9ab6f5" stroke="#9ab6f5" stroke-width="1.51"/><path d="M1172,-348L1069,-383L1060,-166Z" fill="#9db5fa" stroke="#9db5fa" stroke-width="1.51"/><path d="M-30,1543L161,1773L120,1555Z" fill="#858bff" stroke="#858bff" stroke-width="1.51"/><path d="M-81,1847L161,1773L-30,1543Z" fill="#8087ff" stroke="#8087ff" stroke-width="1.51"/><path d="M1444,-297L1172,-348L1333,-140Z" fill="#8bacf0" stroke="#8bacf0" stroke-width="1.51"/><path d="M1444,-297L1333,-140L1409,-79Z" fill="#8aafec" stroke="#8aafec" stroke-width="1.51"/><path d="M1978,792L1883,605L1743,969Z" fill="#85add8" stroke="#85add8" stroke-width="1.51"/><path d="M1743,969L1883,605L1393,597Z" fill="#8abad5" stroke="#8abad5" stroke-width="1.51"/><path d="M-141,-147L-360,188L-162,152Z" fill="#84a5ff" stroke="#84a5ff" stroke-width="1.51"/><path d="M-162,152L-360,188L-73,391Z" fill="#94aeff" stroke="#94aeff" stroke-width="1.51"/><path d="M190,-139L-141,-147L60,145Z" fill="#8aadff" stroke="#8aadff" stroke-width="1.51"/><path d="M586,-301L338,-422L353,-54Z" fill="#90aeff" stroke="#90aeff" stroke-width="1.51"/><path d="M1069,-383L338,-422L586,-301Z" fill="#95acff" stroke="#95acff" stroke-width="1.51"/><path d="M1713,1657L1689,1457L1461,1421Z" fill="#748edd" stroke="#748edd" stroke-width="1.51"/><path d="M2107,863L1978,792L1743,969Z" fill="#7da5d6" stroke="#7da5d6" stroke-width="1.51"/><path d="M63,-380L-141,-147L190,-139Z" fill="#7c9fff" stroke="#7c9fff" stroke-width="1.51"/><path d="M-509,381L-308,1418L-318,1033Z" fill="#6a93e7" stroke="#6a93e7" stroke-width="1.51"/><path d="M-318,1033L-308,1418L-298,1243Z" fill="#6087e8" stroke="#6087e8" stroke-width="1.51"/><path d="M-298,1243L-308,1418L-136,1207Z" fill="#6688eb" stroke="#6688eb" stroke-width="1.51"/><path d="M1671,-165L1444,-297L1409,-79Z" fill="#7ea8e7" stroke="#7ea8e7" stroke-width="1.51"/><path d="M1172,-348L1707,-411L1069,-383Z" fill="#83a3f0" stroke="#83a3f0" stroke-width="1.51"/><path d="M2107,863L1743,969L2166,1184Z" fill="#6d99d1" stroke="#6d99d1" stroke-width="1.51"/><path d="M1896,17L1436,118L1750,297Z" fill="#84b4df" stroke="#84b4df" stroke-width="1.51"/><path d="M-351,634L-509,381L-318,1033Z" fill="#8ea6f8" stroke="#8ea6f8" stroke-width="1.51"/><path d="M-360,188L-509,381L-73,391Z" fill="#94abff" stroke="#94abff" stroke-width="1.51"/><path d="M-441,-158L-509,381L-360,188Z" fill="#7e9bff" stroke="#7e9bff" stroke-width="1.51"/><path d="M338,-422L63,-380L190,-139Z" fill="#7ea1ff" stroke="#7ea1ff" stroke-width="1.51"/><path d="M1896,17L1750,297L2093,378Z" fill="#90b0e8" stroke="#90b0e8" stroke-width="1.51"/><path d="M1896,17L1671,-165L1436,118Z" fill="#7aade0" stroke="#7aade0" stroke-width="1.51"/><path d="M398,1820L1433,1842L804,1774Z" fill="#b1a9ff" stroke="#b1a9ff" stroke-width="1.51"/><path d="M804,1774L1433,1842L1305,1700Z" fill="#a0a0f6" stroke="#a0a0f6" stroke-width="1.51"/><path d="M1305,1700L1713,1657L1461,1421Z" fill="#8291e7" stroke="#8291e7" stroke-width="1.51"/><path d="M1433,1842L1713,1657L1305,1700Z" fill="#8490e9" stroke="#8490e9" stroke-width="1.51"/><path d="M2166,1184L1743,969L1725,1177Z" fill="#6196c9" stroke="#6196c9" stroke-width="1.51"/><path d="M398,1820L-81,1847L1433,1842Z" fill="#a19fff" stroke="#a19fff" stroke-width="1.51"/><path d="M161,1773L-81,1847L398,1820Z" fill="#8990ff" stroke="#8990ff" stroke-width="1.51"/><path d="M-308,1682L-81,1847L-30,1543Z" fill="#767eff" stroke="#767eff" stroke-width="1.51"/><path d="M2093,378L1750,297L1883,605Z" fill="#9ebae8" stroke="#9ebae8" stroke-width="1.51"/><path d="M-308,1418L-308,1682L-30,1543Z" fill="#6f7dfb" stroke="#6f7dfb" stroke-width="1.51"/><path d="M-509,381L-308,1682L-308,1418Z" fill="#5987e4" stroke="#5987e4" stroke-width="1.51"/><path d="M1978,792L2093,378L1883,605Z" fill="#a2b9e9" stroke="#a2b9e9" stroke-width="1.51"/><path d="M1973,1541L1725,1177L1689,1457Z" fill="#6a8cd6" stroke="#6a8cd6" stroke-width="1.51"/><path d="M2223,827L2093,378L1978,792Z" fill="#9cafea" stroke="#9cafea" stroke-width="1.51"/><path d="M338,-422L-48,-481L63,-380Z" fill="#6f93ff" stroke="#6f93ff" stroke-width="1.51"/><path d="M63,-380L-48,-481L-141,-147Z" fill="#6d91ff" stroke="#6d91ff" stroke-width="1.51"/><path d="M-141,-147L-441,-158L-360,188Z" fill="#7699ff" stroke="#7699ff" stroke-width="1.51"/><path d="M1069,-383L-48,-481L338,-422Z" fill="#84a0ff" stroke="#84a0ff" stroke-width="1.51"/><path d="M-48,-481L-441,-158L-141,-147Z" fill="#688dff" stroke="#688dff" stroke-width="1.51"/><path d="M1916,1654L1689,1457L1713,1657Z" fill="#7084e1" stroke="#7084e1" stroke-width="1.51"/><path d="M1916,1654L1973,1541L1689,1457Z" fill="#7182e2" stroke="#7182e2" stroke-width="1.51"/><path d="M2212,1106L2223,827L2107,863Z" fill="#7c98dd" stroke="#7c98dd" stroke-width="1.51"/><path d="M2107,863L2223,827L1978,792Z" fill="#88a3df" stroke="#88a3df" stroke-width="1.51"/><path d="M2187,1831L1916,1654L1713,1657Z" fill="#757dea" stroke="#757dea" stroke-width="1.51"/><path d="M1069,-383L2321,-512L-48,-481Z" fill="#90a7f9" stroke="#90a7f9" stroke-width="1.51"/><path d="M1444,-297L1707,-411L1172,-348Z" fill="#789eea" stroke="#789eea" stroke-width="1.51"/><path d="M1671,-165L1707,-411L1444,-297Z" fill="#6c9ae3" stroke="#6c9ae3" stroke-width="1.51"/><path d="M1929,-286L1707,-411L1671,-165Z" fill="#6493e2" stroke="#6493e2" stroke-width="1.51"/><path d="M1929,-286L1671,-165L1896,17Z" fill="#729de5" stroke="#729de5" stroke-width="1.51"/><path d="M1973,1541L2166,1184L1725,1177Z" fill="#6b8bd8" stroke="#6b8bd8" stroke-width="1.51"/><path d="M2212,1106L2166,1184L2365,1451Z" fill="#7083e1" stroke="#7083e1" stroke-width="1.51"/><path d="M2104,27L2020,-85L1896,17Z" fill="#81a1ec" stroke="#81a1ec" stroke-width="1.51"/><path d="M2104,27L1896,17L2093,378Z" fill="#8da8ee" stroke="#8da8ee" stroke-width="1.51"/><path d="M2365,1451L2166,1184L1973,1541Z" fill="#7380e6" stroke="#7380e6" stroke-width="1.51"/><path d="M2166,1184L2212,1106L2107,863Z" fill="#6c91d5" stroke="#6c91d5" stroke-width="1.51"/><path d="M2423,16L2104,27L2093,378Z" fill="#92a1f5" stroke="#92a1f5" stroke-width="1.51"/><path d="M2321,-512L1929,-286L2020,-85Z" fill="#6c88f0" stroke="#6c88f0" stroke-width="1.51"/><path d="M2020,-85L1929,-286L1896,17Z" fill="#779aea" stroke="#779aea" stroke-width="1.51"/><path d="M2212,1106L2413,714L2223,827Z" fill="#8699e4" stroke="#8699e4" stroke-width="1.51"/><path d="M2223,827L2412,481L2093,378Z" fill="#adb2f6" stroke="#adb2f6" stroke-width="1.51"/><path d="M2413,714L2412,481L2223,827Z" fill="#a2a5f4" stroke="#a2a5f4" stroke-width="1.51"/><path d="M2104,27L2434,-174L2020,-85Z" fill="#8196f4" stroke="#8196f4" stroke-width="1.51"/><path d="M-48,-481L-498,-530L-441,-158Z" fill="#4f7cff" stroke="#4f7cff" stroke-width="1.51"/><path d="M-441,-158L-498,-530L-509,381Z" fill="#648aff" stroke="#648aff" stroke-width="1.51"/><path d="M2321,-512L-498,-530L-48,-481Z" fill="#869fff" stroke="#869fff" stroke-width="1.51"/><path d="M2212,1106L2365,1451L2413,714Z" fill="#6d88dc" stroke="#6d88dc" stroke-width="1.51"/><path d="M2187,1831L2365,1451L1973,1541Z" fill="#7874f3" stroke="#7874f3" stroke-width="1.51"/><path d="M1916,1654L2187,1831L1973,1541Z" fill="#7679ed" stroke="#7679ed" stroke-width="1.51"/><path d="M1433,1842L2187,1831L1713,1657Z" fill="#7182e3" stroke="#7182e3" stroke-width="1.51"/><path d="M2434,-174L2423,16L2412,481Z" fill="#9598ff" stroke="#9598ff" stroke-width="1.51"/><path d="M2412,481L2423,16L2093,378Z" fill="#a0a5fa" stroke="#a0a5fa" stroke-width="1.51"/><path d="M2413,714L2434,-174L2412,481Z" fill="#a6a4ff" stroke="#a6a4ff" stroke-width="1.51"/><path d="M2423,16L2434,-174L2104,27Z" fill="#8694fa" stroke="#8694fa" stroke-width="1.51"/><path d="M1929,-286L2321,-512L1707,-411Z" fill="#5f83eb" stroke="#5f83eb" stroke-width="1.51"/><path d="M1707,-411L2321,-512L1069,-383Z" fill="#558adf" stroke="#558adf" stroke-width="1.51"/><path d="M2434,-174L2321,-512L2020,-85Z" fill="#7385f7" stroke="#7385f7" stroke-width="1.51"/></svg>